<svg width="28" height="29" viewBox="0 0 28 29" fill="none" xmlns="http://www.w3.org/2000/svg">
<path d="M0 0.429565V28.522H28V0.429565H0ZM26.268 26.7843H1.73196V2.16724H26.268V26.7843Z" fill="#333333"/>
<path d="M18.5047 5.35529H9.49508C6.96577 5.35529 4.9082 7.41964 4.9082 9.9573V18.9965C4.9082 21.5345 6.96577 23.5986 9.49508 23.5986H18.5047C21.0342 23.5986 23.0915 21.5345 23.0915 18.9965V9.9573C23.0915 7.41964 21.0342 5.35529 18.5047 5.35529ZM21.1128 18.9966C21.1128 20.4395 19.9428 21.6135 18.5047 21.6135H9.49508C8.05719 21.6135 6.88711 20.4395 6.88711 18.9966V9.9573C6.88711 8.51467 8.05719 7.34072 9.49508 7.34072H18.5047C19.9428 7.34072 21.1128 8.5146 21.1128 9.9573V18.9966Z" fill="#333333"/>
<path d="M18.833 10.7506C18.2217 10.7506 17.7246 10.2519 17.7246 9.63891C17.7246 9.02587 18.2217 8.52716 18.833 8.52716C19.4439 8.52716 19.941 9.02587 19.941 9.63891C19.941 10.2519 19.4439 10.7506 18.833 10.7506Z" fill="#333333"/>
<path d="M13.9993 9.77716C11.4173 9.77716 9.31641 11.885 9.31641 14.4755C9.31641 17.0663 11.4173 19.1742 13.9993 19.1742C16.5816 19.1742 18.6826 17.0663 18.6826 14.4755C18.6826 11.8851 16.5816 9.77716 13.9993 9.77716ZM13.9993 17.1892C12.5088 17.1892 11.295 15.9717 11.295 14.4756C11.295 12.9801 12.5088 11.7629 13.9993 11.7629C15.4905 11.7629 16.7034 12.9801 16.7034 14.4756C16.7034 15.9716 15.4905 17.1892 13.9993 17.1892Z" fill="#333333"/>
</svg>
