<svg width="23" height="23" viewBox="0 0 23 23" fill="none" xmlns="http://www.w3.org/2000/svg">
<path d="M10.5008 2.22632C10.8878 1.36395 12.1122 1.36395 12.4992 2.22632L14.4334 6.53574C14.5926 6.89059 14.9281 7.13435 15.3148 7.17617L20.011 7.68397C20.9508 7.78558 21.3291 8.95 20.6286 9.58458L17.1278 12.7558C16.8395 13.0169 16.7113 13.4113 16.7911 13.792L17.7593 18.4152C17.9531 19.3404 16.9626 20.0601 16.1426 19.5899L12.0448 17.2404C11.7074 17.0469 11.2926 17.0469 10.9552 17.2404L6.85745 19.5899C6.03743 20.0601 5.04693 19.3404 5.24069 18.4152L6.20894 13.792C6.28867 13.4113 6.16052 13.0169 5.87225 12.7558L2.37143 9.58458C1.67088 8.95 2.04922 7.78558 2.98898 7.68397L7.68517 7.17617C8.07186 7.13435 8.40738 6.89059 8.56664 6.53574L10.5008 2.22632Z" fill="#FFC369"/>
</svg>
